# xmcd
#
# Track frame offsets:
#	150
#	21069
#	38632
#	58862
#	74142
#	90390
#	108972
#	130767
#	147487
#	169215
#	188887
#	206509
#
# Disc length: 3036 seconds
#
# Revision: 3
# Processed by: cddbd v1.5PL3 Copyright (c) Steve Scherf et al.
# Submitted via: EasyCDDAExtractor 7.0.4.1
#
DISCID=ac0bda0c
DTITLE=Michael Bolton - Timeless The Classics VOL. 2
DYEAR=1999
DGENRE=Pop
TTITLE0=Sexual Healing
TTITLE1=Tired Of Being Alone
TTITLE2=Let's Stay Together
TTITLE3=My Girl
TTITLE4=Ain't No Sunshine
TTITLE5=(What A) Wonderful World
TTITLE6=Like A Rolling Stone
TTITLE7=I Can't Stand The Rain
TTITLE8=Try A Little Tenderness
TTITLE9=What You Won't Do For Love
TTITLE10=Warm And Tender Love
TTITLE11=Whiter Shade Of Pale
EXTD=
EXTT0=
EXTT1=
EXTT2=
EXTT3=
EXTT4=
EXTT5=
EXTT6=
EXTT7=
EXTT8=
EXTT9=
EXTT10=
EXTT11=
PLAYORDER=
